<svg xmlns="http://www.w3.org/2000/svg" width="21.176" height="21.586" viewBox="0 0 21.176 21.586">
  <path id="Icon_ionic-logo-google" data-name="Icon ionic-logo-google" d="M24.708,12.512,24.6,12.05H14.556V16.3h6a6.006,6.006,0,0,1-5.875,4.516,7.026,7.026,0,0,1-4.728-1.884,6.75,6.75,0,0,1-2.014-4.765,6.962,6.962,0,0,1,1.978-4.76,6.727,6.727,0,0,1,4.7-1.837,6.127,6.127,0,0,1,4,1.557L21.63,6.123a10.688,10.688,0,0,0-7.116-2.74h0A11,11,0,0,0,6.729,6.548a10.956,10.956,0,0,0-3.073,7.625,10.846,10.846,0,0,0,2.953,7.5,11.267,11.267,0,0,0,8.123,3.3,10.02,10.02,0,0,0,7.3-3.067,10.775,10.775,0,0,0,2.8-7.464A12.428,12.428,0,0,0,24.708,12.512Z" transform="translate(-3.656 -3.382)" fill="#5acaaa"/>
</svg>
