<svg xmlns="http://www.w3.org/2000/svg" width="265.797" height="199.69" viewBox="0 0 265.797 199.69">
  <g id="undraw_my_app_grf2-2" transform="translate(0 0)">
    <path id="Path_35" data-name="Path 35" d="M291.74,740.407c0,3.052-27.937,3.377-62.32,5.526-34.352,2.147-62.32-2.474-62.32-5.526s28.1-9.193,62.32-5.526C263.8,738.565,291.74,737.355,291.74,740.407Z" transform="translate(-167.099 -546.793)" fill="#e6e6e6"/>
    <path id="Path_36" data-name="Path 36" d="M714.86,124.769H640.992a15.7,15.7,0,0,0-15.318,12.249L588.349,302.572a12.691,12.691,0,0,0,11.756,15.467l75.937,3.741a16.767,16.767,0,0,0,17.324-13.762L714.539,190.97l1.575.45,4.051-22.185-1.621-.405,5.91-32.672a9.668,9.668,0,0,0-9.594-11.389Z" transform="translate(-458.811 -124.769)" fill="#3f3d56"/>
    <path id="Path_37" data-name="Path 37" d="M667.584,136.395h-8.623a10.852,10.852,0,0,0-10.6,8.539l-35.826,164.2a6.724,6.724,0,0,0,6.13,8.143l75.691,4.961a8.708,8.708,0,0,0,9.14-7.146l30.571-169.719a7.628,7.628,0,0,0-7.507-8.98h-8.18a3.6,3.6,0,0,0-3.476,2.664h0a3.178,3.178,0,0,1-3.069,2.352H673A5.432,5.432,0,0,1,667.584,136.395Z" transform="translate(-475.679 -132.826)" fill="#fff"/>
    <path id="Path_38" data-name="Path 38" d="M528.288,402.5l6.674,13.212,19.955,9.072c2.131,3.6,8.9,3.877,9.4,1.548.552-2.613-8.223-6.818-8.223-6.818L539.4,408.223l-1.46-9.719Z" transform="translate(-417.404 -314.468)" fill="#a0616a"/>
    <path id="Path_39" data-name="Path 39" d="M360.975,575.559l-1.231,9.846,7.139.492.738-10.339Z" transform="translate(-249.304 -398.864)" fill="#a0616a"/>
    <path id="Path_40" data-name="Path 40" d="M523.969,717.005a19.347,19.347,0,0,1-1.761-2.154c-1.023-1.416-1.931,5.847-1.931,5.847s-.985,2.954-.738,4.431,5.908,1.477,6.892,1.231a46.559,46.559,0,0,1,5.908,0h7.385c6.4-2.954,0-4.923,0-4.923-1.969-.246-8.616-6.4-8.616-6.4l-1.477-2.708c-.985-.246-1.969,3.446-1.969,3.446Z" transform="translate(-411.313 -531.941)" fill="#2f2e41"/>
    <path id="Path_41" data-name="Path 41" d="M300.838,575.96l-1.231,9.846,7.139.492.739-10.339Z" transform="translate(-207.629 -399.142)" fill="#a0616a"/>
    <path id="Path_42" data-name="Path 42" d="M463.832,717.406a19.349,19.349,0,0,1-1.761-2.154c-1.023-1.416-1.931,5.846-1.931,5.846a11.417,11.417,0,0,0-.738,4.185c.246,1.477,5.908,1.477,6.892,1.231a40.051,40.051,0,0,1,5.908.246h7.385c6.4-2.954,0-4.923,0-4.923-1.969-.246-8.616-6.4-8.616-6.4l-1.477-2.708c-.985-.246-1.969,3.446-1.969,3.446Z" transform="translate(-369.638 -532.219)" fill="#2f2e41"/>
    <path id="Path_43" data-name="Path 43" d="M475.505,492.624c-.985,1.231-.492,5.415-.492,5.415s-1.723,13.539-.985,14.769-.492,2.215-1.231,3.939a39.312,39.312,0,0,0-1.477,5.908c-4.185,3.446-3.939,19.2-3.939,19.2L465.9,555.886c.492,1.477,7.385,1.723,8.369,1.477s3.938-22.4,3.938-22.4l6.646-12.554s-.492,33.477-.492,34.954,6.646.738,8.123.738,1.477-24.616,1.477-24.616l1.477-6.4,7.877-29.293v-3.446l-1.231-1.723S476.49,491.393,475.505,492.624Z" transform="translate(-374.173 -379.315)" fill="#2f2e41"/>
    <circle id="Ellipse_4" data-name="Ellipse 4" cx="7.631" cy="7.631" r="7.631" transform="translate(104.533 42.17)" fill="#a0616a"/>
    <path id="Path_44" data-name="Path 44" d="M522.1,298.615c-1.547,3.444-.631,8.255,2.462,13.539l-12.554-5.908,1.969-1.723-.492-4.923Z" transform="translate(-406.123 -245.245)" fill="#a0616a"/>
    <path id="Path_45" data-name="Path 45" d="M500.987,319.828a7.877,7.877,0,0,1,3.192,4.6,43.6,43.6,0,0,1,1.873,10.416l.6,10.584,7.385,28.062c-6.4,5.415-10.092,4.185-18.708-.246s-9.6,1.477-9.6,1.477-.738-.246,0-.985,0,0-.738-.738,0,0,.246-.738,0-.246-.246-.492.985-2.462.985-2.462L484,350.844l-2.462-26.093c2.954-3.692,11.323-6.892,11.323-6.892l7.631,5.415c2.461.985.492-2.954.492-2.954Z" transform="translate(-385.008 -258.581)" fill="#fff"/>
    <path id="Path_46" data-name="Path 46" d="M466.088,391.226l-.985,14.769,12.554,17.969c0,4.185,2.215,5.169,2.215,5.169a32.535,32.535,0,0,0,2.215-4.185,4.778,4.778,0,0,0-.739-4.923l-8.615-18.216,3.692-9.108Z" transform="translate(-373.617 -309.424)" fill="#a0616a"/>
    <path id="Path_47" data-name="Path 47" d="M470.828,339.565c-4.185,1.477-4.923,17.477-4.923,17.477,4.923-2.708,10.831,1.723,10.831,1.723s1.231-4.185,2.708-9.6a9.408,9.408,0,0,0-1.969-8.862S475.013,338.088,470.828,339.565Z" transform="translate(-374.173 -273.271)" fill="#fff"/>
    <path id="Path_48" data-name="Path 48" d="M506.967,265.384c.971-.777,2.3.635,2.3.635l.777-6.994s4.857.583,7.966-.194,3.594,2.817,3.594,2.817a24.962,24.962,0,0,0,.1-4.371c-.194-1.749-2.72-3.5-7.189-4.663s-6.8,3.886-6.8,3.886C504.6,258.054,506,266.162,506.967,265.384Z" transform="translate(-401.819 -213.245)" fill="#2f2e41"/>
    <path id="Path_49" data-name="Path 49" d="M749.643,296.975a.622.622,0,0,0,.634-.5l16.972-92.38a.614.614,0,0,0-.6-.725l-77.218-.9h-.007a.617.617,0,0,0-.6.48L668.82,292.329a.614.614,0,0,0,.569.747Z" transform="translate(-514.783 -178.614)" fill="#e6e6e6"/>
    <path id="Path_50" data-name="Path 50" d="M710.928,529.535a.307.307,0,0,0-.3.237l-.713,3.056a.307.307,0,0,0,.277.376l40.287,2.863a.31.31,0,0,0,.323-.248l.686-3.536a.306.306,0,0,0-.283-.365l-40.26-2.384Z" transform="translate(-543.267 -405.273)" fill="#e6e6e6"/>
    <path id="Path_51" data-name="Path 51" d="M755.812,570.3a.308.308,0,0,0,.323-.233l.873-3.544a.307.307,0,0,0-.277-.38l-51.448-3.6a.3.3,0,0,0-.316.219l-.907,3.062a.307.307,0,0,0,.27.393Z" transform="translate(-539.205 -428.15)" fill="#e6e6e6"/>
    <path id="Path_52" data-name="Path 52" d="M746.812,607.3a.307.307,0,0,0,.322-.233l.873-3.544a.307.307,0,0,0-.277-.38l-51.448-3.6a.3.3,0,0,0-.316.219l-.907,3.062a.306.306,0,0,0,.27.393Z" transform="translate(-532.968 -453.791)" fill="#e6e6e6"/>
    <path id="Path_53" data-name="Path 53" d="M715.145,664.233a.3.3,0,0,0,.327-.231l1.846-7.384a.308.308,0,0,0-.272-.381l-31.595-2.657a.312.312,0,0,0-.325.239l-1.575,7.086a.307.307,0,0,0,.271.372Z" transform="translate(-524.997 -491.236)" fill="#5acaaa"/>
  </g>
</svg>
